<svg width="1400" height="900" viewBox="0 0 1400 900" fill="none" xmlns="http://www.w3.org/2000/svg">
  <defs>
    <linearGradient id="bg" x1="0" y1="0" x2="1400" y2="900" gradientUnits="userSpaceOnUse">
      <stop stop-color="#0B1D3A" />
      <stop offset="1" stop-color="#173A66" />
    </linearGradient>
    <linearGradient id="phone" x1="0" y1="0" x2="1" y2="1">
      <stop stop-color="#0F172A" />
      <stop offset="1" stop-color="#1E293B" />
    </linearGradient>
    <linearGradient id="header" x1="0" y1="0" x2="1" y2="1">
      <stop stop-color="#F59E0B" />
      <stop offset="1" stop-color="#FCD34D" />
    </linearGradient>
    <linearGradient id="badge" x1="0" y1="0" x2="1" y2="1">
      <stop stop-color="#0EA5E9" />
      <stop offset="1" stop-color="#22D3EE" />
    </linearGradient>
  </defs>

  <rect width="1400" height="900" fill="url(#bg)" />

  <circle cx="150" cy="130" r="220" fill="#22D3EE" opacity="0.12" />
  <circle cx="1250" cy="790" r="260" fill="#FBBF24" opacity="0.14" />

  <text x="94" y="130" fill="#F8FAFC" font-family="Arial, sans-serif" font-size="52" font-weight="700">Wolaita Calendar Mobile App</text>
  <text x="94" y="175" fill="#CBD5E1" font-family="Arial, sans-serif" font-size="28">Modern UI concept for date, holiday, and event tracking</text>

  <g transform="translate(240 210)">
    <rect x="0" y="0" width="420" height="620" rx="46" fill="url(#phone)" stroke="#334155" stroke-width="4" />
    <rect x="20" y="20" width="380" height="580" rx="34" fill="#0B1220" />
    <rect x="20" y="20" width="380" height="96" rx="34" fill="url(#header)" />
    <text x="48" y="70" fill="#0B1220" font-family="Arial, sans-serif" font-size="26" font-weight="700">Wolaita Calendar</text>
    <text x="48" y="97" fill="#1F2937" font-family="Arial, sans-serif" font-size="20">Yekatit 2018</text>

    <rect x="44" y="142" width="332" height="52" rx="14" fill="#111827" stroke="#334155" />
    <text x="60" y="174" fill="#93C5FD" font-family="Arial, sans-serif" font-size="20">Mon</text>
    <text x="115" y="174" fill="#93C5FD" font-family="Arial, sans-serif" font-size="20">Tue</text>
    <text x="171" y="174" fill="#93C5FD" font-family="Arial, sans-serif" font-size="20">Wed</text>
    <text x="230" y="174" fill="#93C5FD" font-family="Arial, sans-serif" font-size="20">Thu</text>
    <text x="283" y="174" fill="#93C5FD" font-family="Arial, sans-serif" font-size="20">Fri</text>
    <text x="337" y="174" fill="#93C5FD" font-family="Arial, sans-serif" font-size="20">Sat</text>

    <g fill="#1F2937">
      <rect x="44" y="210" width="46" height="46" rx="12" />
      <rect x="98" y="210" width="46" height="46" rx="12" />
      <rect x="152" y="210" width="46" height="46" rx="12" />
      <rect x="206" y="210" width="46" height="46" rx="12" />
      <rect x="260" y="210" width="46" height="46" rx="12" />
      <rect x="314" y="210" width="62" height="46" rx="12" />

      <rect x="44" y="264" width="46" height="46" rx="12" />
      <rect x="98" y="264" width="46" height="46" rx="12" />
      <rect x="152" y="264" width="46" height="46" rx="12" fill="#0EA5E9" />
      <rect x="206" y="264" width="46" height="46" rx="12" />
      <rect x="260" y="264" width="46" height="46" rx="12" />
      <rect x="314" y="264" width="62" height="46" rx="12" />

      <rect x="44" y="318" width="46" height="46" rx="12" />
      <rect x="98" y="318" width="46" height="46" rx="12" />
      <rect x="152" y="318" width="46" height="46" rx="12" />
      <rect x="206" y="318" width="46" height="46" rx="12" />
      <rect x="260" y="318" width="46" height="46" rx="12" />
      <rect x="314" y="318" width="62" height="46" rx="12" />
    </g>

    <text x="166" y="293" fill="#F8FAFC" font-family="Arial, sans-serif" font-size="20" font-weight="700">12</text>

    <rect x="44" y="392" width="332" height="80" rx="16" fill="#111827" stroke="#334155" />
    <circle cx="74" cy="432" r="10" fill="#22D3EE" />
    <text x="96" y="426" fill="#E2E8F0" font-family="Arial, sans-serif" font-size="18" font-weight="700">Cultural Celebration Day</text>
    <text x="96" y="449" fill="#94A3B8" font-family="Arial, sans-serif" font-size="16">Starts 09:00 AM</text>

    <rect x="44" y="490" width="332" height="86" rx="16" fill="url(#badge)" opacity="0.92" />
    <text x="62" y="527" fill="#082F49" font-family="Arial, sans-serif" font-size="20" font-weight="700">Today's Highlight</text>
    <text x="62" y="553" fill="#0F172A" font-family="Arial, sans-serif" font-size="16">Find holidays, events, and reminders in one place.</text>
  </g>

  <g transform="translate(740 260)">
    <rect x="0" y="0" width="360" height="520" rx="42" fill="url(#phone)" stroke="#334155" stroke-width="4" />
    <rect x="18" y="18" width="324" height="484" rx="30" fill="#0B1220" />

    <text x="40" y="62" fill="#F8FAFC" font-family="Arial, sans-serif" font-size="26" font-weight="700">Upcoming Events</text>

    <rect x="34" y="88" width="292" height="92" rx="16" fill="#111827" stroke="#334155" />
    <text x="52" y="124" fill="#FDE68A" font-family="Arial, sans-serif" font-size="18" font-weight="700">Wed - Market Day</text>
    <text x="52" y="149" fill="#94A3B8" font-family="Arial, sans-serif" font-size="16">Community center, 10:00 AM</text>

    <rect x="34" y="196" width="292" height="92" rx="16" fill="#111827" stroke="#334155" />
    <text x="52" y="232" fill="#BAE6FD" font-family="Arial, sans-serif" font-size="18" font-weight="700">Fri - Workshop</text>
    <text x="52" y="257" fill="#94A3B8" font-family="Arial, sans-serif" font-size="16">Youth hall, 02:00 PM</text>

    <rect x="34" y="304" width="292" height="92" rx="16" fill="#111827" stroke="#334155" />
    <text x="52" y="340" fill="#A7F3D0" font-family="Arial, sans-serif" font-size="18" font-weight="700">Sun - Family Gathering</text>
    <text x="52" y="365" fill="#94A3B8" font-family="Arial, sans-serif" font-size="16">Main square, 11:30 AM</text>

    <rect x="34" y="420" width="292" height="64" rx="14" fill="url(#header)" />
    <text x="58" y="460" fill="#0B1220" font-family="Arial, sans-serif" font-size="20" font-weight="700">Add New Reminder</text>
  </g>
</svg>
